<svg width="20" height="20" xmlns="http://www.w3.org/2000/svg" xmlns:xlink="http://www.w3.org/1999/xlink"><defs><path d="M16 20H4a4 4 0 0 1-4-4V4a4 4 0 0 1 4-4h12a4 4 0 0 1 4 4v12a4 4 0 0 1-4 4zm-.8-10a5.2 5.2 0 1 0-10.4 0 5.2 5.2 0 0 0 10.4 0zm-.338-5.6a.8.8 0 1 0 1.6 0 .8.8 0 0 0-1.6 0zM13.6 10a3.6 3.6 0 1 1-7.2 0 3.6 3.6 0 0 1 7.2 0z" id="a"/></defs><g fill="none" fill-rule="evenodd"><mask id="b" fill="#fff"><use xlink:href="#a"/></mask><g mask="url(#b)" fill="#FFF"><path d="M0 0h20v20H0z"/></g></g></svg>