<?xml version="1.0" encoding="UTF-8"?>
<svg width="18px" height="24px" viewBox="0 0 18 24" version="1.1" xmlns="http://www.w3.org/2000/svg" xmlns:xlink="http://www.w3.org/1999/xlink">
    <!-- Generator: Sketch 53.2 (72643) - https://sketchapp.com -->
    <title>Icon-Shape</title>
    <desc>Created with Sketch.</desc>
    <defs>
        <path d="M17.55296,19.09216 C17.2004,18.6464 16.76568,18.27456 16.26648,18.00912 L12.58072,16.05024 C12.016,15.75008 11.63224,15.16096 11.56464,14.49008 L11.5116,13.9592 C11.4648,13.48544 11.5584,12.99936 11.82048,12.6152 C12.17824,12.09104 12.41848,11.46832 12.49336,10.78288 L12.562,10.14 C13.09344,10.14 13.54896,9.7368 13.64984,9.17904 L13.84432,8.09936 C13.9452,7.53264 13.65088,6.9704 13.14648,6.76768 L12.93432,6.68144 L13.13088,4.84128 C13.38048,2.5184 11.68112,0.48 9.49504,0.48 L8.21896,0.48 C6.03184,0.48 4.33352,2.5184 4.58208,4.84128 L4.78072,6.68144 L4.56752,6.76768 C4.06208,6.9704 3.76776,7.53264 3.87072,8.09936 L4.06416,9.17904 C4.16504,9.7368 4.62056,10.14 5.152,10.14 L5.22168,10.78288 C5.29448,11.46832 5.53576,12.09104 5.89352,12.6152 C6.15456,12.99936 6.2492,13.48544 6.2024,13.95808 L6.14832,14.49008 C6.08176,15.16096 5.69904,15.75008 5.13328,16.05024 L1.44752,18.00912 C0.94832,18.27456 0.5136,18.6464 0.16,19.09216 C0.16,19.09216 2.45944,23.20928 8.85752,23.20928 C15.25456,23.20928 17.55296,19.09216 17.55296,19.09216" id="path-1"></path>
    </defs>
    <g id="📱-Individual-Screens" stroke="none" stroke-width="1" fill="none" fill-rule="evenodd">
        <g id="Create-Post-1" transform="translate(-25.000000, -89.000000)">
            <g id="Avatar-+-Text" transform="translate(15.000000, 80.000000)">
                <g id="Avatars/Default-Square-Medium">
                    <g id="Icon" transform="translate(10.000000, 9.000000)">
                        <mask id="mask-2" fill="#ffffff">
                            <use xlink:href="#path-1"></use>
                        </mask>
                        <use id="Icon-Shape" fill="#ffffff" xlink:href="#path-1"></use>
                    </g>
                </g>
            </g>
        </g>
    </g>
</svg>